<svg xmlns="http://www.w3.org/2000/svg" version="1.1" xmlns:xlink="http://www.w3.org/1999/xlink" xmlns:svgjs="http://svgjs.dev/svgjs" width="1000" height="308" viewBox="0 0 1000 308"><g transform="matrix(1,0,0,1,-0.6060606060606233,0.054552870693100886)"><svg viewBox="0 0 396 122" data-background-color="#ffffff" preserveAspectRatio="xMidYMid meet" height="308" width="1000" xmlns="http://www.w3.org/2000/svg" xmlns:xlink="http://www.w3.org/1999/xlink"><g id="tight-bounds" transform="matrix(1,0,0,1,0.2400000000000091,-0.02160860462518599)"><svg viewBox="0 0 395.52 122.04321720925037" height="122.04321720925037" width="395.52"><g><svg viewBox="0 0 613.7453077684731 189.3796822086013" height="122.04321720925037" width="395.52"><g><rect width="11.051491076789603" height="189.3796822086013" x="178.24321177862174" y="0" fill="#000000" opacity="1" stroke-width="0" stroke="transparent" fill-opacity="1" class="rect-o-0" data-fill-palette-color="primary" rx="1%" id="o-0" data-palette-color="#000000"></rect></g><g transform="matrix(1,0,0,1,218.22530776847313,0.4710937368373038)"><svg viewBox="0 0 395.52 188.4374947349267" height="188.4374947349267" width="395.52"><g id="textblocktransform"><svg viewBox="0 0 395.52 188.4374947349267" height="188.4374947349267" width="395.52" id="textblock"><g><svg viewBox="0 0 395.52 122.54784439359268" height="122.54784439359268" width="395.52"><g transform="matrix(1,0,0,1,0,0)"><svg width="395.52" viewBox="2.700000047683716 -33.77000045776367 110.46000671386719 34.22999954223633" height="122.54784439359268" data-palette-color="#000000"><path d="M18.58-27.91L18.58-27.91Q14.38-27.91 12.25-25.08 10.11-22.24 10.11-16.68L10.11-16.68Q10.11-5.46 18.54-5.46 26.97-5.46 26.97-16.68 26.97-27.91 18.58-27.91ZM6.8-29.4L6.8-29.4Q10.95-33.77 18.6-33.77 26.26-33.77 30.32-29.35 34.38-24.92 34.38-16.66 34.38-8.39 30.28-3.97 26.19 0.46 18.54 0.46 10.89 0.46 6.8-3.97 2.7-8.39 2.7-16.71 2.7-25.03 6.8-29.4ZM70.25 0L70.25-15.75Q70.25-17.34 70.26-18.29 70.27-19.24 70.6-26.04L70.6-26.04 70.4-26.04 61.8 0 55.36 0 47.34-26.09 47.14-26.09Q47.57-17.87 47.57-15.47L47.57-15.47 47.57 0 41.28 0 41.28-33.27 50.86-33.27 58.74-7.84 58.87-7.84 67.21-33.27 76.82-33.27 76.82 0 70.25 0ZM101.36-33.39L113.16 0 105.56 0 103.15-7.91 91.02-7.91 88.62 0 81.01 0 92.74-33.39 101.36-33.39ZM92.79-13.83L92.79-13.83 101.46-13.83 97.69-25.99Q97.29-27.35 97.09-28.24L97.09-28.24Q96.41-25.51 92.79-13.83Z" opacity="1" transform="matrix(1,0,0,1,0,0)" fill="#000000" class="wordmark-text-0" data-fill-palette-color="primary" id="text-0"></path></svg></g></svg></g><g transform="matrix(1,0,0,1,0,151.47844930665448)"><svg viewBox="0 0 232.209792 36.95904542827225" height="36.95904542827225" width="232.209792"><g transform="matrix(1,0,0,1,0,0)"><svg width="232.209792" viewBox="2.3299999237060547 -37.5 238.72000122070312 38" height="36.95904542827225" data-palette-color="#8f001a"><path d="M8.03 0L2.33 0 7.08-35 11.65-35 20.55-18.25 29.4-35 34-35 38.73 0 33.02 0 29.58-27.6 31.03-27.33 20.6-7.9 10.03-27.3 11.48-27.58 8.03 0ZM49.3 0.5L49.3 0.5Q47.15 0.5 45.47-0.41 43.8-1.33 42.84-2.95 41.87-4.58 41.87-6.78L41.87-6.78Q41.87-8.88 42.82-10.36 43.77-11.85 45.35-12.85 46.92-13.85 48.81-14.44 50.7-15.03 52.65-15.3 54.6-15.58 56.27-15.6L56.27-15.6Q56.25-18.53 55.02-19.56 53.8-20.6 51.3-20.6L51.3-20.6Q49.8-20.6 48.22-20.16 46.65-19.73 44.67-18.53L44.67-18.53 44.07-22.78Q45.87-23.88 48.1-24.53 50.32-25.18 52.7-25.18L52.7-25.18Q55.67-25.18 57.62-24.13 59.57-23.08 60.55-20.65 61.52-18.23 61.52-14.15L61.52-14.15 61.52-8.4Q61.52-6.6 61.69-5.59 61.85-4.58 62.4-4.15 62.95-3.73 64.07-3.73L64.07-3.73 64.67-3.73 64.02 0.5 62.87 0.5Q61.02 0.5 59.89 0.1 58.75-0.3 58.05-1.04 57.35-1.78 56.87-2.8L56.87-2.8Q55.55-1.3 53.59-0.4 51.62 0.5 49.3 0.5ZM50.9-3.6L50.9-3.6Q52.3-3.6 53.79-4.3 55.27-5 56.3-6.25L56.3-6.25 56.3-12.05Q53.5-11.93 51.49-11.39 49.47-10.85 48.39-9.78 47.3-8.7 47.3-7.03L47.3-7.03Q47.3-5.23 48.25-4.41 49.2-3.6 50.9-3.6ZM73.5 0L68.09 0 68.09-24.7 72.7-24.7 73.07-21.25Q74.57-23.05 76.28-24.13 78-25.2 80-25.2L80-25.2Q80.59-25.2 81.12-25.08L81.12-25.08 80.67-19.65Q80.25-19.75 79.81-19.8 79.37-19.85 78.9-19.85L78.9-19.85Q77.09-19.85 75.61-19.04 74.12-18.23 73.5-17.2L73.5-17.2 73.5 0ZM96.74 0.5L92.52 0.5Q90.19 0.5 88.75-0.4 87.32-1.3 86.66-2.7 85.99-4.1 85.99-5.65L85.99-5.65 85.99-20.53 82.07-20.53 82.54-24.7 85.99-24.7 85.99-30.53 91.22-31.08 91.22-24.7 97.27-24.7 97.27-20.53 91.22-20.53 91.22-8.3Q91.22-6.15 91.47-5.19 91.72-4.23 92.69-3.98 93.67-3.73 95.79-3.73L95.79-3.73 97.19-3.73 96.74 0.5ZM106.42 0L101.19 0 101.19-24.7 106.42-24.7 106.42 0ZM106.42-29.5L101.19-29.5 101.19-35 106.42-35 106.42-29.5ZM117.96 0.5L117.96 0.5Q115.81 0.5 114.14-0.41 112.46-1.33 111.5-2.95 110.54-4.58 110.54-6.78L110.54-6.78Q110.54-8.88 111.49-10.36 112.44-11.85 114.01-12.85 115.59-13.85 117.48-14.44 119.36-15.03 121.31-15.3 123.26-15.58 124.94-15.6L124.94-15.6Q124.91-18.53 123.69-19.56 122.46-20.6 119.96-20.6L119.96-20.6Q118.46-20.6 116.89-20.16 115.31-19.73 113.34-18.53L113.34-18.53 112.74-22.78Q114.54-23.88 116.76-24.53 118.99-25.18 121.36-25.18L121.36-25.18Q124.34-25.18 126.29-24.13 128.24-23.08 129.21-20.65 130.19-18.23 130.19-14.15L130.19-14.15 130.19-8.4Q130.19-6.6 130.35-5.59 130.51-4.58 131.06-4.15 131.61-3.73 132.74-3.73L132.74-3.73 133.34-3.73 132.69 0.5 131.54 0.5Q129.69 0.5 128.55 0.1 127.41-0.3 126.71-1.04 126.01-1.78 125.54-2.8L125.54-2.8Q124.21-1.3 122.25-0.4 120.29 0.5 117.96 0.5ZM119.56-3.6L119.56-3.6Q120.96-3.6 122.45-4.3 123.94-5 124.96-6.25L124.96-6.25 124.96-12.05Q122.16-11.93 120.15-11.39 118.14-10.85 117.05-9.78 115.96-8.7 115.96-7.03L115.96-7.03Q115.96-5.23 116.91-4.41 117.86-3.6 119.56-3.6ZM144.91 0.5L143.11 0.5Q140.81 0.5 139.41-0.38 138.01-1.25 137.37-2.66 136.74-4.08 136.74-5.68L136.74-5.68 136.74-37.5 141.96-37.5 141.96-8.25Q141.96-6.2 142.22-5.24 142.49-4.28 143.25-4 144.01-3.73 145.51-3.73L145.51-3.73 144.91 0.5ZM180.33-13.83L180.33-8.95 165.48-8.95 165.48-13.83 180.33-13.83ZM182.63 0L172.16-29.68 173.66-29.68 163.18 0 157.68 0 170.18-35 175.63-35 188.13 0 182.63 0ZM196.78 0L191.38 0 191.38-24.7 195.98-24.7 196.35-21.25Q197.85-23.05 199.57-24.13 201.28-25.2 203.28-25.2L203.28-25.2Q203.88-25.2 204.4-25.08L204.4-25.08 203.95-19.65Q203.53-19.75 203.09-19.8 202.65-19.85 202.18-19.85L202.18-19.85Q200.38-19.85 198.89-19.04 197.4-18.23 196.78-17.2L196.78-17.2 196.78 0ZM220.03 0.5L215.8 0.5Q213.48 0.5 212.04-0.4 210.6-1.3 209.94-2.7 209.28-4.1 209.28-5.65L209.28-5.65 209.28-20.53 205.35-20.53 205.83-24.7 209.28-24.7 209.28-30.53 214.5-31.08 214.5-24.7 220.55-24.7 220.55-20.53 214.5-20.53 214.5-8.3Q214.5-6.15 214.75-5.19 215-4.23 215.98-3.98 216.95-3.73 219.08-3.73L219.08-3.73 220.48-3.73 220.03 0.5ZM231.5 0.5L231.5 0.5Q228.57 0.5 226.5-0.15 224.42-0.8 223.07-1.53L223.07-1.53 223.62-6.28Q224.9-5.4 226.86-4.59 228.82-3.78 231.3-3.78L231.3-3.78Q233.45-3.78 234.59-4.49 235.72-5.2 235.72-6.6L235.72-6.6Q235.72-7.75 235.05-8.46 234.37-9.18 233.27-9.65 232.17-10.13 230.95-10.53L230.95-10.53Q229.02-11.15 227.31-11.98 225.6-12.8 224.54-14.19 223.47-15.58 223.47-17.88L223.47-17.88Q223.47-19.88 224.47-21.55 225.47-23.23 227.51-24.21 229.55-25.2 232.7-25.2L232.7-25.2Q235.1-25.2 236.79-24.69 238.47-24.18 239.8-23.48L239.8-23.48 239.25-18.85Q237.92-19.88 236.39-20.56 234.85-21.25 232.8-21.25L232.8-21.25Q230.9-21.25 229.77-20.51 228.65-19.78 228.65-18.28L228.65-18.28Q228.65-16.68 229.97-15.95 231.3-15.23 234.1-14.28L234.1-14.28Q235.37-13.85 236.6-13.26 237.82-12.68 238.84-11.85 239.85-11.03 240.45-9.8 241.05-8.58 241.05-6.88L241.05-6.88Q241.05-4.93 240.11-3.25 239.17-1.58 237.09-0.54 235 0.5 231.5 0.5Z" opacity="1" transform="matrix(1,0,0,1,0,0)" fill="#8f001a" class="slogan-text-1" data-fill-palette-color="secondary" id="text-1"></path></svg></g></svg></g></svg></g></svg></g><g transform="matrix(1,0,0,1,0,0.4710937368373038)"><svg viewBox="0 0 149.31260686555996 188.4374947349267" height="188.4374947349267" width="149.31260686555996"><g><svg xmlns="http://www.w3.org/2000/svg" xmlns:xlink="http://www.w3.org/1999/xlink" version="1.1" x="0" y="0" viewBox="-250.70001220703125 140.98709106445312 63.399993896484375 80.01290893554688" enable-background="new -269 131 100 100" xml:space="preserve" height="188.4374947349267" width="149.31260686555996" class="icon-icon-0" data-fill-palette-color="accent" id="icon-0"><path d="M-200.1 163.7l-1-0.8c-1.2-1-3.1-0.6-3.8 0.8-0.3 0.7-0.6 7.7-0.6 8.9 0 0.2 0 0.6 0 0.7 0 1-0.9 1.8-1.9 1.6-0.8-0.1-1.4-0.9-1.4-1.7-0.1-12-3.7-20.4-10.5-26.7-4.1-3.8-9-7.2-10.5-4.6-0.4 0.7 0.2 2.2 0.9 4.1 1.4 4.3-2.9 11.2-9 18.1-5.7 6.5-12.8 14.5-12.8 26.4 0 16 15.1 30.5 31.7 30.5 16.6 0 31.7-14.5 31.7-30.5C-187.3 180.4-192.1 170.4-200.1 163.7zM-219 215.2c-7.2 0-13.1-5.9-13.1-13.1 0-3.6 1.4-6.8 3.8-9.2l7.2-8.6c1.1-1.3 3.2-1.3 4.3 0l7.2 8.6c2.3 2.4 3.8 5.6 3.8 9.2C-205.9 209.3-211.8 215.2-219 215.2z" fill="#000000" data-fill-palette-color="accent"></path></svg></g></svg></g></svg></g><defs></defs></svg><rect width="395.52" height="122.04321720925037" fill="none" stroke="none" visibility="hidden"></rect></g></svg></g></svg>